<?xml version="1.0" encoding="UTF-8" standalone="no"?>
<!-- Created with Inkscape (http://www.inkscape.org/) -->

<svg
   xmlns:dc="http://purl.org/dc/elements/1.1/"
   xmlns:cc="http://creativecommons.org/ns#"
   xmlns:rdf="http://www.w3.org/1999/02/22-rdf-syntax-ns#"
   xmlns:svg="http://www.w3.org/2000/svg"
   xmlns="http://www.w3.org/2000/svg"
   xmlns:sodipodi="http://sodipodi.sourceforge.net/DTD/sodipodi-0.dtd"
   xmlns:inkscape="http://www.inkscape.org/namespaces/inkscape"
   width="500"
   height="160"
   viewBox="0 0 500.00005 160.00001"
   id="svg2"
   version="1.1"
   inkscape:version="0.91 r13725"
   sodipodi:docname="header.svg">
  <defs
     id="defs4">
    <filter
       inkscape:collect="always"
       style="color-interpolation-filters:sRGB"
       id="filter5321"
       x="-0.047796145"
       width="1.0955923"
       y="-0.089854576"
       height="1.1797092">
      <feGaussianBlur
         inkscape:collect="always"
         stdDeviation="20.318136"
         id="feGaussianBlur5323" />
    </filter>
  </defs>
  <sodipodi:namedview
     id="base"
     pagecolor="#ffffff"
     bordercolor="#a9a9a9"
     borderopacity="1"
     inkscape:pageopacity="0"
     inkscape:pageshadow="2"
     inkscape:zoom="2.628"
     inkscape:cx="250"
     inkscape:cy="80"
     inkscape:document-units="px"
     inkscape:current-layer="layer1"
     showgrid="false"
     units="px"
     inkscape:window-width="1855"
     inkscape:window-height="1056"
     inkscape:window-x="65"
     inkscape:window-y="24"
     inkscape:window-maximized="1"
     borderlayer="false" />
  <metadata
     id="metadata7">
    <rdf:RDF>
      <cc:Work
         rdf:about="">
        <dc:format>image/svg+xml</dc:format>
        <dc:type
           rdf:resource="http://purl.org/dc/dcmitype/StillImage" />
        <dc:title />
      </cc:Work>
    </rdf:RDF>
  </metadata>
  <g
     inkscape:label="Layer 1"
     inkscape:groupmode="layer"
     id="layer1"
     transform="translate(0,-892.36219)">
    <text
       xml:space="preserve"
       style="font-style:normal;font-variant:normal;font-weight:normal;font-stretch:normal;font-size:43.40225983px;line-height:125%;font-family:Sans;-inkscape-font-specification:'Sans, Normal';text-align:start;letter-spacing:0px;word-spacing:0px;writing-mode:lr-tb;text-anchor:start;fill:#607d8f;fill-opacity:0.94117647;stroke:none;stroke-width:1px;stroke-linecap:butt;stroke-linejoin:miter;stroke-opacity:1"
       x="229.32686"
       y="898.53015"
       id="text4136"
       sodipodi:linespacing="125%"
       transform="scale(0.95325404,1.0490383)"><tspan
         sodipodi:role="line"
         id="tspan4138"
         x="229.32686"
         y="898.53015"
         style="font-style:normal;font-variant:normal;font-weight:bold;font-stretch:normal;font-family:Sawasdee;-inkscape-font-specification:'Sawasdee Bold';text-align:start;letter-spacing:0px;text-anchor:start;fill:#607d8f;fill-opacity:0.94117647">Calvary Hills</tspan><tspan
         sodipodi:role="line"
         x="229.32686"
         y="952.78296"
         id="tspan4140"
         style="font-style:normal;font-variant:normal;font-weight:bold;font-stretch:normal;font-family:Sawasdee;-inkscape-font-specification:'Sawasdee Bold';text-align:start;letter-spacing:0px;text-anchor:start;fill:#607d8f;fill-opacity:0.94117647" /></text>
    <g
       id="g79310"
       transform="matrix(0.19371214,0,0,0.19371215,10.265598,829.73915)"
       style="opacity:1;fill:#607d8f;fill-opacity:0.94117647;filter:url(#filter5321)">
      <path
         inkscape:connector-curvature="0"
         id="path79230"
         d=""
         style="fill:#607d8f;fill-opacity:0.94117647" />
      <path
         inkscape:connector-curvature="0"
         id="path79228"
         d=""
         style="fill:#607d8f;fill-opacity:0.94117647" />
      <path
         sodipodi:nodetypes="csscssssssssssscssssssssssssssscssssscssssssccsccssccssssscc"
         inkscape:connector-curvature="0"
         id="path79268"
         d="m 954.12769,948.02652 c -26.8209,-0.3246 -53.32978,-1.6184 -58.90867,-2.8772 -5.57889,-1.2588 -43.23636,-11.8349 -83.68328,-23.5023 l -73.53986,-21.2135 -86.21914,0.62281 c -63.43533,0.45646 -95.6007,2.96645 -121.72115,9.49019 -19.5261,4.877 -45.77222,10.5984 -58.32471,12.7143 -12.55248,2.1164 -27.95782,1.8963 -34.23406,-0.4869 -6.27625,-2.3847 -11.41136,-7.3753 -11.41136,-11.0898 0,-3.714 15.40533,-13.92643 34.23407,-22.6939 18.82873,-8.76748 42.22201,-18.17551 51.98506,-20.90663 9.76305,-2.73111 36.94262,-7.40977 60.39905,-10.39752 23.45647,-2.98724 62.25509,-5.42876 86.21914,-5.4247 23.9641,0.004 62.97041,3.39602 86.68067,7.53859 23.71026,4.14258 49.95639,8.81363 58.32471,10.38028 l 15.21515,2.84828 -11.93136,-10.3534 c -7.42946,-6.44666 -15.93376,-6.48368 -22.82272,-7.6517 -8.55339,-1.45051 -21.84134,-4.50419 -45.5836,-20.1276 -19.0807,-12.55604 -46.89921,-27.39639 -61.81882,-32.97882 -14.91962,-5.58193 -46.09468,-15.04727 -69.2779,-21.03342 -33.41524,-8.628 -51.086,-10.3184 -85.26089,-8.1543 -23.71026,1.50123 -61.36773,6.49535 -83.68327,11.09742 -22.31555,4.60207 -49.78486,12.40744 -61.0429,17.34526 -11.25804,4.93782 -54.6212,30.21525 -96.36257,56.17177 -41.74138,25.95653 -88.07078,53.96559 -102.95423,62.24209 -22.76916,12.6616 -29.00285,14.1633 -39.30579,9.4689 -6.73473,-3.0684 -12.24494,-7.4625 -12.24494,-9.7646 0,-2.302 7.41738,-11.2211 16.48307,-19.82073 9.06569,-8.59909 39.87722,-30.9476 68.47002,-49.66324 28.5928,-18.71564 53.13463,-35.88542 54.53736,-38.15501 1.40274,-2.2701 1.19109,-7.66945 -0.47065,-11.99917 -1.66145,-4.32972 -7.31266,-9.23458 -12.55828,-10.89912 -5.24557,-1.66504 -19.29894,1.39371 -31.22964,6.79712 -11.93075,5.4034 -37.66818,21.53145 -57.19428,35.84079 -19.5261,14.30882 -48.05449,36.30586 -63.39643,48.88219 -15.554284,12.75029 -39.727646,26.62097 -54.643051,31.35437 -24.435164,7.7546 -27.445125,7.7922 -34.802356,0.4362 -7.3572823,-7.35758 -2.6314083,-13.50957 54.643004,-71.13743 34.483243,-34.69611 73.512573,-70.39692 86.731793,-79.33531 13.21917,-8.93839 33.476,-19.5829 45.01511,-23.65397 11.53912,-4.07157 29.25183,-7.40206 39.36153,-7.40155 10.1097,5e-4 36.26965,3.42381 58.1332,7.60747 21.86356,4.18365 46.39797,7.60655 54.52093,7.60655 l 14.76899,0 c 21.53453,-11.52045 31.74798,-11.3241 48.08715,-10.14343 4.13238,0 24.10226,-2.51658 44.3775,-5.59247 20.27523,-3.076 41.99916,-6.54302 48.27541,-7.70445 25.44714,-4.56954 49.29556,-5.40979 71.40639,0.0827 2.31341,1.42972 20.00101,5.1057 39.30578,8.16851 19.30477,3.0627 40.30705,6.85787 46.67174,8.43314 l 11.57223,2.86451 c 0,0 16.17531,1.415 45.32373,12.13255 l 49.13391,32.16938 c 27.02367,17.69369 80.08648,48.5576 117.91736,68.58682 37.83088,20.0287 85.32992,41.4217 105.55338,47.5387 22.81728,6.90211 36.76988,13.81431 36.76988,18.21611 0,3.9011 -6.0134,11.8237 -13.3632,17.6049 -11.5626,9.0951 -19.93423,10.4325 -62.12851,9.9233 z"
         style="fill:#607d8f;fill-opacity:0.94117647" />
      <g
         transform="translate(-0.80967545,8.9064638)"
         id="g79282"
         style="fill:#607d8f;fill-opacity:0.94117647">
        <rect
           style="color:#000000;clip-rule:nonzero;display:inline;overflow:visible;visibility:visible;opacity:1;isolation:auto;mix-blend-mode:normal;color-interpolation:sRGB;color-interpolation-filters:linearRGB;solid-color:#000000;solid-opacity:1;fill:#607d8f;fill-opacity:0.94117647;fill-rule:nonzero;stroke:none;stroke-width:13.80000019;stroke-linecap:round;stroke-linejoin:round;stroke-miterlimit:4;stroke-dasharray:none;stroke-dashoffset:0;stroke-opacity:1;color-rendering:auto;image-rendering:auto;shape-rendering:auto;text-rendering:auto;enable-background:accumulate"
           id="rect79270"
           width="44.532314"
           height="201.60994"
           x="365.97467"
           y="543.07446" />
        <rect
           style="color:#000000;clip-rule:nonzero;display:inline;overflow:visible;visibility:visible;opacity:1;isolation:auto;mix-blend-mode:normal;color-interpolation:sRGB;color-interpolation-filters:linearRGB;solid-color:#000000;solid-opacity:1;fill:#607d8f;fill-opacity:0.94117647;fill-rule:nonzero;stroke:none;stroke-width:13.80000019;stroke-linecap:round;stroke-linejoin:round;stroke-miterlimit:4;stroke-dasharray:none;stroke-dashoffset:0;stroke-opacity:1;color-rendering:auto;image-rendering:auto;shape-rendering:auto;text-rendering:auto;enable-background:accumulate"
           id="rect79272"
           width="129.54855"
           height="42.103279"
           x="326.30042"
           y="572.2229" />
        <rect
           style="color:#000000;clip-rule:nonzero;display:inline;overflow:visible;visibility:visible;opacity:1;isolation:auto;mix-blend-mode:normal;color-interpolation:sRGB;color-interpolation-filters:linearRGB;solid-color:#000000;solid-opacity:1;fill:#607d8f;fill-opacity:0.94117647;fill-rule:nonzero;stroke:none;stroke-width:13.80000019;stroke-linecap:round;stroke-linejoin:round;stroke-miterlimit:4;stroke-dasharray:none;stroke-dashoffset:0;stroke-opacity:1;color-rendering:auto;image-rendering:auto;shape-rendering:auto;text-rendering:auto;enable-background:accumulate"
           id="rect79274"
           width="56.67749"
           height="335.20688"
           x="515.7652"
           y="396.52267" />
        <rect
           style="color:#000000;clip-rule:nonzero;display:inline;overflow:visible;visibility:visible;opacity:1;isolation:auto;mix-blend-mode:normal;color-interpolation:sRGB;color-interpolation-filters:linearRGB;solid-color:#000000;solid-opacity:1;fill:#607d8f;fill-opacity:0.94117647;fill-rule:nonzero;stroke:none;stroke-width:13.80000019;stroke-linecap:round;stroke-linejoin:round;stroke-miterlimit:4;stroke-dasharray:none;stroke-dashoffset:0;stroke-opacity:1;color-rendering:auto;image-rendering:auto;shape-rendering:auto;text-rendering:auto;enable-background:accumulate"
           id="rect79276"
           width="200.80025"
           height="50.200062"
           x="442.8941"
           y="467.77438" />
        <rect
           style="color:#000000;clip-rule:nonzero;display:inline;overflow:visible;visibility:visible;opacity:1;isolation:auto;mix-blend-mode:normal;color-interpolation:sRGB;color-interpolation-filters:linearRGB;solid-color:#000000;solid-opacity:1;fill:#607d8f;fill-opacity:0.94117647;fill-rule:nonzero;stroke:none;stroke-width:13.80000019;stroke-linecap:round;stroke-linejoin:round;stroke-miterlimit:4;stroke-dasharray:none;stroke-dashoffset:0;stroke-opacity:1;color-rendering:auto;image-rendering:auto;shape-rendering:auto;text-rendering:auto;enable-background:accumulate"
           id="rect79278"
           width="46.961349"
           height="221.8519"
           x="675.27185"
           y="543.07446" />
        <rect
           style="color:#000000;clip-rule:nonzero;display:inline;overflow:visible;visibility:visible;opacity:1;isolation:auto;mix-blend-mode:normal;color-interpolation:sRGB;color-interpolation-filters:linearRGB;solid-color:#000000;solid-opacity:1;fill:#607d8f;fill-opacity:0.94117647;fill-rule:nonzero;stroke:none;stroke-width:13.80000019;stroke-linecap:round;stroke-linejoin:round;stroke-miterlimit:4;stroke-dasharray:none;stroke-dashoffset:0;stroke-opacity:1;color-rendering:auto;image-rendering:auto;shape-rendering:auto;text-rendering:auto;enable-background:accumulate"
           id="rect79280"
           width="139.26469"
           height="39.674244"
           x="631.54919"
           y="573.84222" />
      </g>
    </g>
    <g
       transform="matrix(0.19371214,0,0,0.19371215,10.333022,829.56142)"
       id="g4834">
      <path
         style="fill:#000000"
         d=""
         id="path4836"
         inkscape:connector-curvature="0" />
      <path
         style="fill:#000000"
         d=""
         id="path4838"
         inkscape:connector-curvature="0" />
      <path
         style="fill:#000000"
         d="m 954.12769,948.02652 c -26.8209,-0.3246 -53.32978,-1.6184 -58.90867,-2.8772 -5.57889,-1.2588 -43.23636,-11.8349 -83.68328,-23.5023 l -73.53986,-21.2135 -86.21914,0.62281 c -63.43533,0.45646 -95.6007,2.96645 -121.72115,9.49019 -19.5261,4.877 -45.77222,10.5984 -58.32471,12.7143 -12.55248,2.1164 -27.95782,1.8963 -34.23406,-0.4869 -6.27625,-2.3847 -11.41136,-7.3753 -11.41136,-11.0898 0,-3.714 15.40533,-13.92643 34.23407,-22.6939 18.82873,-8.76748 42.22201,-18.17551 51.98506,-20.90663 9.76305,-2.73111 36.94262,-7.40977 60.39905,-10.39752 23.45647,-2.98724 62.25509,-5.42876 86.21914,-5.4247 23.9641,0.004 62.97041,3.39602 86.68067,7.53859 23.71026,4.14258 49.95639,8.81363 58.32471,10.38028 l 15.21515,2.84828 -11.93136,-10.3534 c -7.42946,-6.44666 -15.93376,-6.48368 -22.82272,-7.6517 -8.55339,-1.45051 -21.84134,-4.50419 -45.5836,-20.1276 -19.0807,-12.55604 -46.89921,-27.39639 -61.81882,-32.97882 -14.91962,-5.58193 -46.09468,-15.04727 -69.2779,-21.03342 -33.41524,-8.628 -51.086,-10.3184 -85.26089,-8.1543 -23.71026,1.50123 -61.36773,6.49535 -83.68327,11.09742 -22.31555,4.60207 -49.78486,12.40744 -61.0429,17.34526 -11.25804,4.93782 -54.6212,30.21525 -96.36257,56.17177 -41.74138,25.95653 -88.07078,53.96559 -102.95423,62.24209 -22.76916,12.6616 -29.00285,14.1633 -39.30579,9.4689 -6.73473,-3.0684 -12.24494,-7.4625 -12.24494,-9.7646 0,-2.302 7.41738,-11.2211 16.48307,-19.82073 9.06569,-8.59909 39.87722,-30.9476 68.47002,-49.66324 28.5928,-18.71564 53.13463,-35.88542 54.53736,-38.15501 1.40274,-2.2701 1.19109,-7.66945 -0.47065,-11.99917 -1.66145,-4.32972 -7.31266,-9.23458 -12.55828,-10.89912 -5.24557,-1.66504 -19.29894,1.39371 -31.22964,6.79712 -11.93075,5.4034 -37.66818,21.53145 -57.19428,35.84079 -19.5261,14.30882 -48.05449,36.30586 -63.39643,48.88219 -15.554284,12.75029 -39.727646,26.62097 -54.643051,31.35437 -24.435164,7.7546 -27.445125,7.7922 -34.802356,0.4362 -7.3572823,-7.35758 -2.6314083,-13.50957 54.643004,-71.13743 34.483243,-34.69611 73.512573,-70.39692 86.731793,-79.33531 13.21917,-8.93839 33.476,-19.5829 45.01511,-23.65397 11.53912,-4.07157 29.25183,-7.40206 39.36153,-7.40155 10.1097,5e-4 36.26965,3.42381 58.1332,7.60747 21.86356,4.18365 46.39797,7.60655 54.52093,7.60655 l 14.76899,0 c 21.53453,-11.52045 31.74798,-11.3241 48.08715,-10.14343 4.13238,0 24.10226,-2.51658 44.3775,-5.59247 20.27523,-3.076 41.99916,-6.54302 48.27541,-7.70445 25.44714,-4.56954 49.29556,-5.40979 71.40639,0.0827 2.31341,1.42972 20.00101,5.1057 39.30578,8.16851 19.30477,3.0627 40.30705,6.85787 46.67174,8.43314 l 11.57223,2.86451 c 0,0 16.17531,1.415 45.32373,12.13255 l 49.13391,32.16938 c 27.02367,17.69369 80.08648,48.5576 117.91736,68.58682 37.83088,20.0287 85.32992,41.4217 105.55338,47.5387 22.81728,6.90211 36.76988,13.81431 36.76988,18.21611 0,3.9011 -6.0134,11.8237 -13.3632,17.6049 -11.5626,9.0951 -19.93423,10.4325 -62.12851,9.9233 z"
         id="path4840"
         inkscape:connector-curvature="0"
         sodipodi:nodetypes="csscssssssssssscssssssssssssssscssssscssssssccsccssccssssscc" />
      <g
         id="g4842"
         transform="translate(-0.80967545,8.9064638)">
        <rect
           id="rect4844"
           y="446.83636"
           x="492.68292"
           height="128.69653"
           width="240.24388"
           style="fill:none;stroke:none" />
        <rect
           y="543.07446"
           x="365.97467"
           height="201.60994"
           width="44.532314"
           id="rect4846"
           style="color:#000000;clip-rule:nonzero;display:inline;overflow:visible;visibility:visible;opacity:1;isolation:auto;mix-blend-mode:normal;color-interpolation:sRGB;color-interpolation-filters:linearRGB;solid-color:#000000;solid-opacity:1;fill:#000000;fill-opacity:1;fill-rule:nonzero;stroke:none;stroke-width:13.80000019;stroke-linecap:round;stroke-linejoin:round;stroke-miterlimit:4;stroke-dasharray:none;stroke-dashoffset:0;stroke-opacity:1;color-rendering:auto;image-rendering:auto;shape-rendering:auto;text-rendering:auto;enable-background:accumulate" />
        <rect
           y="572.2229"
           x="326.30042"
           height="42.103279"
           width="129.54855"
           id="rect4848"
           style="color:#000000;clip-rule:nonzero;display:inline;overflow:visible;visibility:visible;opacity:1;isolation:auto;mix-blend-mode:normal;color-interpolation:sRGB;color-interpolation-filters:linearRGB;solid-color:#000000;solid-opacity:1;fill:#000000;fill-opacity:1;fill-rule:nonzero;stroke:none;stroke-width:13.80000019;stroke-linecap:round;stroke-linejoin:round;stroke-miterlimit:4;stroke-dasharray:none;stroke-dashoffset:0;stroke-opacity:1;color-rendering:auto;image-rendering:auto;shape-rendering:auto;text-rendering:auto;enable-background:accumulate" />
        <rect
           y="396.52267"
           x="515.7652"
           height="335.20688"
           width="56.67749"
           id="rect4850"
           style="color:#000000;clip-rule:nonzero;display:inline;overflow:visible;visibility:visible;opacity:1;isolation:auto;mix-blend-mode:normal;color-interpolation:sRGB;color-interpolation-filters:linearRGB;solid-color:#000000;solid-opacity:1;fill:#000000;fill-opacity:1;fill-rule:nonzero;stroke:none;stroke-width:13.80000019;stroke-linecap:round;stroke-linejoin:round;stroke-miterlimit:4;stroke-dasharray:none;stroke-dashoffset:0;stroke-opacity:1;color-rendering:auto;image-rendering:auto;shape-rendering:auto;text-rendering:auto;enable-background:accumulate" />
        <rect
           y="467.77438"
           x="442.8941"
           height="50.200062"
           width="200.80025"
           id="rect4852"
           style="color:#000000;clip-rule:nonzero;display:inline;overflow:visible;visibility:visible;opacity:1;isolation:auto;mix-blend-mode:normal;color-interpolation:sRGB;color-interpolation-filters:linearRGB;solid-color:#000000;solid-opacity:1;fill:#000000;fill-opacity:1;fill-rule:nonzero;stroke:none;stroke-width:13.80000019;stroke-linecap:round;stroke-linejoin:round;stroke-miterlimit:4;stroke-dasharray:none;stroke-dashoffset:0;stroke-opacity:1;color-rendering:auto;image-rendering:auto;shape-rendering:auto;text-rendering:auto;enable-background:accumulate" />
        <rect
           y="543.07446"
           x="675.27185"
           height="221.8519"
           width="46.961349"
           id="rect4854"
           style="color:#000000;clip-rule:nonzero;display:inline;overflow:visible;visibility:visible;opacity:1;isolation:auto;mix-blend-mode:normal;color-interpolation:sRGB;color-interpolation-filters:linearRGB;solid-color:#000000;solid-opacity:1;fill:#000000;fill-opacity:1;fill-rule:nonzero;stroke:none;stroke-width:13.80000019;stroke-linecap:round;stroke-linejoin:round;stroke-miterlimit:4;stroke-dasharray:none;stroke-dashoffset:0;stroke-opacity:1;color-rendering:auto;image-rendering:auto;shape-rendering:auto;text-rendering:auto;enable-background:accumulate" />
        <rect
           y="573.84222"
           x="631.54919"
           height="39.674244"
           width="139.26469"
           id="rect4856"
           style="color:#000000;clip-rule:nonzero;display:inline;overflow:visible;visibility:visible;opacity:1;isolation:auto;mix-blend-mode:normal;color-interpolation:sRGB;color-interpolation-filters:linearRGB;solid-color:#000000;solid-opacity:1;fill:#000000;fill-opacity:1;fill-rule:nonzero;stroke:none;stroke-width:13.80000019;stroke-linecap:round;stroke-linejoin:round;stroke-miterlimit:4;stroke-dasharray:none;stroke-dashoffset:0;stroke-opacity:1;color-rendering:auto;image-rendering:auto;shape-rendering:auto;text-rendering:auto;enable-background:accumulate" />
      </g>
    </g>
    <text
       xml:space="preserve"
       style="font-style:normal;font-variant:normal;font-weight:normal;font-stretch:normal;font-size:21.88719749px;line-height:125%;font-family:Sans;-inkscape-font-specification:'Sans, Normal';text-align:start;letter-spacing:0px;word-spacing:0px;writing-mode:lr-tb;text-anchor:start;fill:#000000;fill-opacity:1;stroke:none;stroke-width:1px;stroke-linecap:butt;stroke-linejoin:miter;stroke-opacity:1"
       x="5.0219798"
       y="1040.3099"
       id="text4161"
       sodipodi:linespacing="125%"><tspan
         sodipodi:role="line"
         id="tspan4163"
         x="5.0219798"
         y="1040.3099"
         style="font-style:normal;font-variant:normal;font-weight:200;font-stretch:normal;font-family:BonvenoCF;-inkscape-font-specification:'BonvenoCF Ultra-Light';fill:#808080">A family of God, serving families for God</tspan></text>
    <text
       xml:space="preserve"
       style="font-style:normal;font-variant:normal;font-weight:normal;font-stretch:normal;font-size:22.5px;line-height:125%;font-family:Sans;-inkscape-font-specification:'Sans, Normal';text-align:start;letter-spacing:0px;word-spacing:0px;writing-mode:lr-tb;text-anchor:start;fill:#000000;fill-opacity:1;stroke:none;stroke-width:1px;stroke-linecap:butt;stroke-linejoin:miter;stroke-opacity:1"
       x="222.22221"
       y="980.4444"
       id="text4163"
       sodipodi:linespacing="125%"><tspan
         sodipodi:role="line"
         id="tspan4165"
         x="222.22221"
         y="980.4444"></tspan></text>
    <text
       transform="scale(0.95325404,1.0490383)"
       sodipodi:linespacing="125%"
       id="text4167"
       y="946.19287"
       x="229.32686"
       style="font-style:normal;font-variant:normal;font-weight:normal;font-stretch:normal;font-size:43.40225983px;line-height:125%;font-family:Sans;-inkscape-font-specification:'Sans, Normal';text-align:start;letter-spacing:0px;word-spacing:0px;writing-mode:lr-tb;text-anchor:start;fill:#607d8f;fill-opacity:0.94117647;stroke:none;stroke-width:1px;stroke-linecap:butt;stroke-linejoin:miter;stroke-opacity:1"
       xml:space="preserve"><tspan
         style="font-style:normal;font-variant:normal;font-weight:bold;font-stretch:normal;font-family:Sawasdee;-inkscape-font-specification:'Sawasdee Bold';text-align:start;letter-spacing:0px;text-anchor:start;fill:#607d8f;fill-opacity:0.94117647"
         id="tspan4171"
         y="946.19287"
         x="229.32686"
         sodipodi:role="line">Baptist Church</tspan></text>
  </g>
</svg>
