<?xml version="1.0" encoding="UTF-8" standalone="no"?>
<!-- Created with Inkscape (http://www.inkscape.org/) -->

<svg
   xmlns:dc="http://purl.org/dc/elements/1.1/"
   xmlns:cc="http://creativecommons.org/ns#"
   xmlns:rdf="http://www.w3.org/1999/02/22-rdf-syntax-ns#"
   xmlns:svg="http://www.w3.org/2000/svg"
   xmlns="http://www.w3.org/2000/svg"
   xmlns:sodipodi="http://sodipodi.sourceforge.net/DTD/sodipodi-0.dtd"
   xmlns:inkscape="http://www.inkscape.org/namespaces/inkscape"
   width="620"
   height="300"
   viewBox="0 0 620.00006 300.00002"
   id="svg2"
   version="1.1"
   inkscape:version="0.92.4 (5da689c313, 2019-01-14)"
   sodipodi:docname="header.svg">
  <defs
     id="defs4">
    <clipPath
       clipPathUnits="userSpaceOnUse"
       id="clipPath42">
      <path
         d="M 0,1000 H 1000 V 0 H 0 Z"
         id="path40"
         inkscape:connector-curvature="0" />
    </clipPath>
    <clipPath
       clipPathUnits="userSpaceOnUse"
       id="clipPath54">
      <path
         d="M 0,1000 H 1000 V 0 H 0 Z"
         id="path52"
         inkscape:connector-curvature="0" />
    </clipPath>
  </defs>
  <sodipodi:namedview
     id="base"
     pagecolor="#ffffff"
     bordercolor="#a9a9a9"
     borderopacity="1"
     inkscape:pageopacity="0"
     inkscape:pageshadow="2"
     inkscape:zoom="1.4621143"
     inkscape:cx="310"
     inkscape:cy="125"
     inkscape:document-units="px"
     inkscape:current-layer="layer1"
     showgrid="false"
     units="px"
     inkscape:window-width="1850"
     inkscape:window-height="1016"
     inkscape:window-x="70"
     inkscape:window-y="27"
     inkscape:window-maximized="1"
     borderlayer="false" />
  <metadata
     id="metadata7">
    <rdf:RDF>
      <cc:Work
         rdf:about="">
        <dc:format>image/svg+xml</dc:format>
        <dc:type
           rdf:resource="http://purl.org/dc/dcmitype/StillImage" />
        <dc:title></dc:title>
      </cc:Work>
    </rdf:RDF>
  </metadata>
  <g
     inkscape:label="Layer 1"
     inkscape:groupmode="layer"
     id="layer1"
     transform="translate(0,-752.36219)">
    <text
       xml:space="preserve"
       style="font-style:normal;font-variant:normal;font-weight:normal;font-stretch:normal;line-height:0%;font-family:sans-serif;-inkscape-font-specification:'Sans, Normal';text-align:start;letter-spacing:0px;word-spacing:0px;writing-mode:lr-tb;text-anchor:start;fill:#000000;fill-opacity:1;stroke:none;stroke-width:1px;stroke-linecap:butt;stroke-linejoin:miter;stroke-opacity:1"
       x="310"
       y="980.4444"
       id="text4163"><tspan
         sodipodi:role="line"
         id="tspan4165"
         x="310"
         y="980.4444"
         style="font-size:22.5px;line-height:1.25;font-family:sans-serif"> </tspan></text>
    <g
       id="g1439"
       transform="matrix(1.232496,0,0,1.232496,-72.073762,-239.61546)">
      <text
         id="text4161"
         y="1040.3099"
         x="64.741814"
         style="font-style:normal;font-variant:normal;font-weight:normal;font-stretch:normal;line-height:0%;font-family:sans-serif;-inkscape-font-specification:'Sans, Normal';text-align:start;letter-spacing:0px;word-spacing:0px;writing-mode:lr-tb;text-anchor:start;fill:#000000;fill-opacity:1;stroke:none;stroke-width:1px;stroke-linecap:butt;stroke-linejoin:miter;stroke-opacity:1"
         xml:space="preserve"><tspan
           style="font-style:normal;font-variant:normal;font-weight:200;font-stretch:normal;font-size:21.88719749px;line-height:1.25;font-family:BonvenoCF;-inkscape-font-specification:'BonvenoCF Ultra-Light';fill:#808080"
           y="1040.3099"
           x="64.741814"
           id="tspan4163"
           sodipodi:role="line">A family of God, serving families for God</tspan></text>
      <text
         xml:space="preserve"
         style="font-style:normal;font-variant:normal;font-weight:normal;font-stretch:normal;font-size:11.32316494px;line-height:0%;font-family:sans-serif;-inkscape-font-specification:'Sans, Normal';text-align:start;letter-spacing:0px;word-spacing:0px;writing-mode:lr-tb;text-anchor:start;fill:#607d8f;fill-opacity:0.94117647;stroke:none;stroke-width:0.94359714px;stroke-linecap:butt;stroke-linejoin:miter;stroke-opacity:1"
         x="69.397804"
         y="964.2276"
         id="text4167"
         transform="scale(0.95325404,1.0490383)"><tspan
           id="tspan1896"
           sodipodi:role="line"
           x="69.397804"
           y="964.2276"
           style="font-style:normal;font-variant:normal;font-weight:bold;font-stretch:normal;font-size:40.95424652px;line-height:1.25;font-family:Sawasdee;-inkscape-font-specification:'Sawasdee Bold';text-align:start;letter-spacing:0px;text-anchor:start;fill:#607d8f;fill-opacity:0.94117647;stroke-width:0.94359714px">Calvary Hills Baptist Church</tspan></text>
    </g>
    <g
       transform="matrix(0.274276,0,0,-0.274276,172.86207,1002.991)"
       id="g1788">
      <g
         inkscape:export-ydpi="90"
         inkscape:export-xdpi="90"
         transform="matrix(1.1440281,0,0,1.1440281,310.41308,567.13982)"
         id="g12">
        <path
           inkscape:connector-curvature="0"
           id="path14"
           style="fill:none;stroke:#000000;stroke-width:26;stroke-linecap:butt;stroke-linejoin:miter;stroke-miterlimit:10;stroke-dasharray:none;stroke-opacity:1"
           d="M 0,12 H 102.821" />
      </g>
      <g
         inkscape:export-ydpi="90"
         inkscape:export-xdpi="90"
         transform="matrix(1.1440281,0,0,1.1440281,523.23697,709.87517)"
         id="g16">
        <path
           sodipodi:nodetypes="cc"
           inkscape:connector-curvature="0"
           id="path18"
           style="fill:none;stroke:#000000;stroke-width:26;stroke-linecap:butt;stroke-linejoin:miter;stroke-miterlimit:10;stroke-dasharray:none;stroke-opacity:1"
           d="M 0,-3.0000001 V -241.118" />
      </g>
      <g
         inkscape:export-ydpi="90"
         inkscape:export-xdpi="90"
         transform="matrix(1.1440281,0,0,1.1440281,451.44028,623.07478)"
         id="g20">
        <path
           inkscape:connector-curvature="0"
           id="path22"
           style="fill:none;stroke:#000000;stroke-width:26;stroke-linecap:butt;stroke-linejoin:miter;stroke-miterlimit:10;stroke-dasharray:none;stroke-opacity:1"
           d="M 0,12 H 125.516" />
      </g>
      <g
         inkscape:export-ydpi="90"
         inkscape:export-xdpi="90"
         transform="matrix(1.1440281,0,0,1.1440281,676.80936,643.607)"
         id="g24">
        <path
           sodipodi:nodetypes="cc"
           inkscape:connector-curvature="0"
           id="path26"
           style="fill:none;stroke:#000000;stroke-width:26;stroke-linecap:butt;stroke-linejoin:miter;stroke-miterlimit:10;stroke-dasharray:none;stroke-opacity:1"
           d="M 0,-3.0000001 V -197.521" />
      </g>
      <g
         inkscape:export-ydpi="90"
         inkscape:export-xdpi="90"
         transform="matrix(1.1440281,0,0,1.1440281,617.99464,568.28385)"
         id="g28">
        <path
           inkscape:connector-curvature="0"
           id="path30"
           style="fill:none;stroke:#000000;stroke-width:26;stroke-linecap:butt;stroke-linejoin:miter;stroke-miterlimit:10;stroke-dasharray:none;stroke-opacity:1"
           d="M 0,12 H 102.821" />
      </g>
      <g
         inkscape:export-ydpi="90"
         inkscape:export-xdpi="90"
         transform="matrix(1.1440281,0,0,1.1440281,369.22837,642.46297)"
         id="g32">
        <path
           sodipodi:nodetypes="cc"
           inkscape:connector-curvature="0"
           id="path34"
           style="fill:none;stroke:#000000;stroke-width:26;stroke-linecap:butt;stroke-linejoin:miter;stroke-miterlimit:10;stroke-dasharray:none;stroke-opacity:1"
           d="M 0,-3.0000001 V -197.521" />
      </g>
      <g
         transform="matrix(1.1440281,0,0,1.1440281,-72.014,-75.214678)"
         inkscape:export-ydpi="90"
         inkscape:export-xdpi="90"
         id="g36">
        <g
           clip-path="url(#clipPath42)"
           id="g38">
          <g
             transform="translate(307.0791,413.0703)"
             id="g44">
            <path
               sodipodi:nodetypes="cccccccc"
               inkscape:connector-curvature="0"
               id="path46"
               style="fill:#00255b;fill-opacity:1;fill-rule:nonzero;stroke:#000000;stroke-width:8;stroke-linecap:butt;stroke-linejoin:miter;stroke-miterlimit:10;stroke-dasharray:none;stroke-opacity:1"
               d="M 0,0 C 31.693,44.237 312.59284,68.94863 430.37021,-2.0458105 489.36487,-41.893767 342.112,-54.139 342.112,-54.139 L 264.971,-84.934 173.984,-93.698 99.81,-73.919 37.504,-50.184 0,0" />
          </g>
        </g>
      </g>
      <g
         transform="matrix(1.1440281,0,0,1.1440281,-72.014,-75.214678)"
         inkscape:export-ydpi="90"
         inkscape:export-xdpi="90"
         id="g48">
        <g
           clip-path="url(#clipPath54)"
           id="g50">
          <g
             transform="translate(232.6953,413.0703)"
             id="g56">
            <path
               inkscape:connector-curvature="0"
               id="path58"
               style="fill:#005b88;fill-opacity:1;fill-rule:nonzero;stroke:none"
               d="m 0,0 c 47.126,31.126 247.852,-19.604 302.022,-78.728 27.357,-29.857 -46.717,-132.66 -46.717,-132.66 l -105.685,30.537 -96.215,75.157 -57.361,76.379 c 0,0 -2.16,25.276 3.956,29.315" />
          </g>
          <g
             transform="translate(232.6953,413.0703)"
             id="g60">
            <path
               inkscape:connector-curvature="0"
               id="path62"
               style="fill:none;stroke:#000000;stroke-width:8;stroke-linecap:butt;stroke-linejoin:miter;stroke-miterlimit:10;stroke-dasharray:none;stroke-opacity:1"
               d="m 0,0 c 47.126,31.126 247.852,-19.604 302.022,-78.728 27.357,-29.857 -46.717,-132.66 -46.717,-132.66 l -105.685,30.537 -96.215,75.157 -57.361,76.379 c 0,0 -2.16,25.276 3.956,29.315 z" />
          </g>
        </g>
      </g>
      <path
         inkscape:export-ydpi="90"
         inkscape:export-xdpi="90"
         sodipodi:nodetypes="cccccc"
         d="M 377.94986,190.45118 C 432.03722,302.19756 779.25127,443.24015 830.17273,384.01387 862.07509,368.30522 778.12631,251.63609 778.12631,251.63609 L 649.14401,164.51606 508.84613,140.75689 c 0,0 -144.91404,20.73093 -130.89627,49.69429"
         style="fill:#488fb2;fill-opacity:1;fill-rule:nonzero;stroke:none;stroke-width:1.14402807"
         id="path74"
         inkscape:connector-curvature="0" />
      <path
         inkscape:export-ydpi="90"
         inkscape:export-xdpi="90"
         sodipodi:nodetypes="cccccc"
         d="M 377.94986,190.45118 C 432.03722,302.19756 761.67193,431.78571 829.64777,384.01387 861.55013,368.30522 778.12631,251.63609 778.12631,251.63609 L 649.14401,164.51606 508.84613,140.75689 c 0,0 -144.91404,20.73093 -130.89627,49.69429 z"
         style="fill:none;stroke:#000000;stroke-width:9.15222454;stroke-linecap:butt;stroke-linejoin:miter;stroke-miterlimit:10;stroke-dasharray:none;stroke-opacity:1"
         id="path78"
         inkscape:connector-curvature="0" />
      <path
         inkscape:export-ydpi="90"
         inkscape:export-xdpi="90"
         d="m 261.57853,245.05061 c -73.08395,76.24032 -109.6059,168.43983 -109.6059,276.54019 0,108.10264 36.52195,200.69112 109.6059,277.80319 72.163,76.24719 159.84703,114.38908 263.08642,114.38908 84.94522,0 156.65176,-20.95974 215.11846,-62.85176 58.43352,-41.0706 94.53219,-96.3775 108.24336,-165.92754 h -54.81496 c -10.05944,51.94917 -40.64617,95.10191 -91.79224,129.47538 -50.25029,34.35058 -109.1746,51.53732 -176.75462,51.53732 -87.7012,0 -162.603,-33.52918 -224.70657,-100.56236 -62.1356,-67.88205 -93.1788,-149.17325 -93.1788,-243.86331 0,-94.70608 31.0432,-175.97898 93.1788,-243.8576 62.10357,-67.05606 137.00537,-100.56121 224.70657,-100.56121 74.88464,0 136.54776,20.11087 184.97103,60.33261 49.32134,40.2286 77.18415,93.84577 83.57583,160.90068 h 54.81496 C 840.70728,317.1095 807.36344,252.15617 748.00096,203.56472 689.53312,154.95268 615.08778,130.66153 524.66495,130.66153 c -103.23939,0 -190.92342,38.11901 -263.08642,114.38908"
         style="fill:#000000;fill-opacity:1;fill-rule:nonzero;stroke:none;stroke-width:1.14402807"
         id="path82"
         inkscape:connector-curvature="0" />
    </g>
  </g>
</svg>
